<svg width="406" height="291" viewBox="0 0 406 291" fill="none" xmlns="http://www.w3.org/2000/svg">
<path d="M73.8759 -91.4456C95.7585 -156.831 188.242 -156.831 210.124 -91.4455L213.261 -82.0714C223.052 -52.8163 253.217 -35.5461 283.403 -41.9133L346.182 -55.1556C399.336 -66.3676 428.445 4.45059 382.771 33.8606C352.85 53.1265 352.85 96.8735 382.771 116.139C428.445 145.549 399.336 216.368 346.182 205.156L283.403 191.913C253.217 185.546 223.052 202.816 213.261 232.071L210.124 241.446C188.242 306.831 95.7585 306.831 73.8759 241.445L70.7386 232.071C60.9478 202.816 30.7831 185.546 0.597382 191.913L-62.1818 205.156C-115.336 216.368 -144.445 145.549 -98.7706 116.139C-68.8501 96.8735 -68.8501 53.1265 -98.7706 33.8606C-144.445 4.45059 -115.336 -66.3676 -62.1819 -55.1556L0.597351 -41.9133C30.7831 -35.5461 60.9478 -52.8163 70.7386 -82.0714L73.8759 -91.4456Z" fill="#D7A218"/>
</svg>
